# xmcd
#
# Track frame offsets:
#	150
#	11441
#	24223
#	31992
#	43659
#	52385
#	61393
#	69190
#	77432
#	88105
#	99322
#	113396
#	126727
#	138812
#	151255
#	160989
#	169742
#	180879
#	188301
#	199741
#	209756
#	219200
#	229346
#	238724
#	250658
#	260232
#	276255
#	285688
#	296048
#	305778
#	317312
#
# Disc length: 4347 seconds
#
# Revision: 1
# Processed by: cddbd v1.5.2PL0 Copyright (c) Steve Scherf et al.
# Submitted via: audiograbber 1.82.01
#
DISCID=b110f91f
DTITLE=Various Artist - The House Of Cash Alikes Vol. 1
DYEAR=1900
DGENRE=Country
TTITLE0=Johnny Doe - devil train
TTITLE1=Hal Smith - makin' a livin' with my guitar
TTITLE2=Sleepy La Beef - ridin' fence
TTITLE3=Webb Foley - makin' a plan
TTITLE4=Durwood Daly - that's the way it goes
TTITLE5=Melvin nash - true lovin' woman
TTITLE6=jim nesbitt - cry me a river
TTITLE7=Johnny Skiles - come paddle footin' down
TTITLE8=O.C. Holt - this train
TTITLE9=norman sullivan - folsom prison blues
TTITLE10=chuck wells - down and out
TTITLE11=curtis stevenson - mr. blues
TTITLE12=Jeff johnson - doin' my time
TTITLE13=benny joy - dark angel
TTITLE14=benny barnes - train of love
TTITLE15=bart barton - ballad of earl kay long
TTITLE16=bud landon - six mile climb
TTITLE17=The Three ramblers - if you call that love
TTITLE18=clayton lee phelps - muddy road
TTITLE19=Jerry Cox - you said goodbye
TTITLE20=lonnie mullins - it was you
TTITLE21=dane stinit - mean eyed cat
TTITLE22=lonnie smithson - me and the blues
TTITLE23=merlin andrews - cocaine blues
TTITLE24=bill tidwell - folsom prison blues
TTITLE25=Johnny Doe - cab drivin' man
TTITLE26=dane stinit - flip top flipper
TTITLE27=benny barnes - i walk the line
TTITLE28=O.C. Holt - poor boy
TTITLE29=bud landon - running man
TTITLE30=hank swatley - ways of a woman in love
EXTD=
EXTT0=
EXTT1=
EXTT2=
EXTT3=
EXTT4=
EXTT5=
EXTT6=
EXTT7=
EXTT8=
EXTT9=
EXTT10=
EXTT11=
EXTT12=
EXTT13=
EXTT14=
EXTT15=
EXTT16=
EXTT17=
EXTT18=
EXTT19=
EXTT20=
EXTT21=
EXTT22=
EXTT23=
EXTT24=
EXTT25=
EXTT26=
EXTT27=
EXTT28=
EXTT29=
EXTT30=
PLAYORDER=
